<?xml version="1.0" encoding="UTF-8" standalone="no"?>
<!-- Created with Inkscape (http://www.inkscape.org/) -->

<svg
   version="1.1"
   id="svg14872"
   width="60"
   height="60"
   viewBox="0 0 60.000002 60"
   sodipodi:docname="bicycle.svg"
   inkscape:version="1.2.2 (b0a8486, 2022-12-01)"
   xmlns:inkscape="http://www.inkscape.org/namespaces/inkscape"
   xmlns:sodipodi="http://sodipodi.sourceforge.net/DTD/sodipodi-0.dtd"
   xmlns="http://www.w3.org/2000/svg"
   xmlns:svg="http://www.w3.org/2000/svg">
  <defs
     id="defs14876" />
  <sodipodi:namedview
     id="namedview14874"
     pagecolor="#ffffff"
     bordercolor="#000000"
     borderopacity="0.25"
     inkscape:showpageshadow="2"
     inkscape:pageopacity="0.0"
     inkscape:pagecheckerboard="0"
     inkscape:deskcolor="#d1d1d1"
     showgrid="false"
     inkscape:zoom="27.753846"
     inkscape:cx="19.961197"
     inkscape:cy="23.870565"
     inkscape:window-width="1920"
     inkscape:window-height="1015"
     inkscape:window-x="3840"
     inkscape:window-y="0"
     inkscape:window-maximized="1"
     inkscape:current-layer="g14880">
    <inkscape:page
       x="0"
       y="0"
       id="page14878"
       width="60.000004"
       height="60" />
  </sodipodi:namedview>
  <g
     id="g14880"
     inkscape:groupmode="layer"
     inkscape:label="Page 1"
     transform="matrix(1.3333333,0,0,-1.3333333,0,1040)">
    <g
       id="g14882"
       transform="matrix(0.01543794,0,0,0.01551529,-12.610752,670.44868)">
      <path
         d="m 2934.83,5648.96 c -8.67,134.68 -57.72,258.31 -135.23,358.98 l 240.67,240.66 c 137.68,-163.41 223.84,-371.61 233.51,-599.64 z m 82.26,-712.24 -239.85,239.84 c 80.08,93.24 134.54,209.03 152.51,336.62 h 340.68 c -20.38,-220.9 -112.68,-420.94 -253.34,-576.46 z m -672.48,-326.43 v 339.49 c 125.03,12.78 239.63,60.6 334.08,133.31 l 240.66,-240.66 c -157.44,-132.65 -356.46,-217.48 -574.74,-232.14 z m -67.89,721.98 c -151.16,0 -273.7,122.54 -273.7,273.7 0,151.17 122.54,273.71 273.7,273.71 151.16,0 273.7,-122.54 273.7,-273.71 0,-151.16 -122.54,-273.7 -273.7,-273.7 z m -67.89,-721.98 c -218.27,14.66 -417.29,99.49 -574.74,232.13 l 240.67,240.67 c 94.44,-72.71 209.04,-120.53 334.07,-133.31 z m -672.47,326.43 c -140.67,155.52 -232.97,355.56 -253.34,576.46 h 340.67 c 17.97,-127.59 72.44,-243.38 152.51,-336.62 z m -23.19,1311.89 240.67,-240.67 c -77.51,-100.67 -126.56,-224.29 -135.23,-358.98 h -338.95 c 9.67,228.03 95.83,436.23 233.51,599.65 z m 695.66,353.06 v -339.5 c -137.42,-14.05 -262.24,-70.41 -361.52,-155.67 l -239.84,239.84 c 161.34,145.94 370.61,239.82 601.36,255.33 z m 135.78,0 c 230.76,-15.51 440.02,-109.39 601.37,-255.33 L 2706.13,6106.5 c -99.28,85.26 -224.1,141.62 -361.52,155.67 z m 1313.44,-873.52 -32.11,-4.62 c -50.92,-7.32 -101.61,21.62 -117.37,70.59 -20.34,63.2 21.75,127.14 84.6,136.18 l 28.66,4.12 c 39.48,5.68 64.9,45.03 53.71,83.32 -5.52,18.86 -11.4,37.57 -17.65,56.11 -12.43,36.88 -54.09,54.89 -89.49,38.72 l -29.84,-13.63 c -46.8,-21.37 -103.59,-7.88 -132.5,34.67 -37.32,54.91 -14.95,128.12 42.81,154.5 l 26.17,11.95 c 36.33,16.59 49.62,61.59 27.99,95.17 -10.61,16.48 -21.54,32.72 -32.79,48.73 -22.35,31.81 -67.34,37.32 -96.72,11.86 l -26.83,-23.25 c -43.51,-37.7 -109.95,-32.95 -147.64,10.55 -55.19,0 -80.75,68.53 -39.04,104.67 l 71.19,61.69 c 30.16,26.13 30.27,72.99 0.13,99.14 -14.77,12.81 -29.81,25.33 -45.09,37.55 -30.4,24.3 -75.19,16.95 -96.23,-15.8 l -19.15,-29.79 c -31.12,-48.42 -96.21,-62.58 -144.63,-31.46 -48.43,31.12 -62.59,96.21 -31.47,144.63 l 15.62,24.3 c 21.57,33.56 8.49,78.55 -27.78,95.15 -17.79,8.14 -35.78,15.94 -53.95,23.37 -36.02,14.75 -76.92,-4.92 -87.89,-42.27 l -10.06,-34.26 c -16.22,-55.24 -74.68,-87.16 -129.91,-70.94 v 0 c -55.24,16.22 -87.16,74.68 -70.94,129.91 l 8.1,27.58 c 11.24,38.3 -14.01,77.8 -53.52,83.46 -19.31,2.77 -38.74,5.16 -58.29,7.16 -38.7,3.96 -72.38,-26.42 -72.38,-65.32 v -35.5 c 0,-57.57 -47.1,-104.67 -104.66,-104.67 v 0 c -57.57,0 -104.67,47.1 -104.67,104.67 v 28.7 c 0,39.88 -35.31,70.63 -74.8,65.03 -19.45,-2.76 -38.78,-5.91 -57.98,-9.43 -38.3,-7.03 -62.07,-45.72 -51.1,-83.08 l 9.18,-31.28 c 14.5,-49.36 -6.94,-103.65 -53.17,-126.22 -59.66,-29.12 -128.94,3.44 -146.83,64.36 l -8.16,27.78 c -11.25,38.32 -53.89,57.88 -90.2,41.27 -17.85,-8.16 -35.51,-16.68 -52.97,-25.54 -34.67,-17.59 -46.53,-61.34 -25.51,-94.05 l 19.31,-30.05 c 31.12,-48.42 16.96,-113.51 -31.46,-144.63 v 0 c -48.43,-31.12 -113.52,-16.96 -144.64,31.47 l -15.46,24.05 c -21.58,33.59 -67.99,40.35 -98.15,14.19 -14.78,-12.82 -29.3,-25.93 -43.55,-39.32 -28.34,-26.65 -27.42,-71.99 1.98,-97.46 l 26.74,-23.17 c 43.5,-37.69 48.25,-104.13 10.56,-147.64 -37.7,-43.5 -104.14,-48.26 -147.64,-10.56 l -21.71,18.81 c -30.14,26.12 -76.52,19.58 -98.12,-13.95 -10.6,-16.44 -20.87,-33.12 -30.81,-50.01 -19.74,-33.55 -6.1,-76.85 29.32,-93.03 l 32.36,-14.78 c 52.36,-23.91 75.64,-86.32 51.73,-138.68 v 0 c -23.92,-52.37 -86.32,-75.64 -138.686,-51.73 l -26.293,12.01 c -36.305,16.58 -78.996,-2.79 -90.234,-41.08 -5.508,-18.77 -10.645,-37.68 -15.41,-56.75 -9.426,-37.74 15.851,-75.39 54.359,-80.93 l 35.32,-5.07 c 56.974,-8.2 96.894,-61.52 88.704,-118.5 -8.19,-56.98 -61.516,-96.9 -118.497,-88.7 l -28.402,4.08 c -39.313,5.65 -74.914,-24.65 -74.938,-64.36 0,-0.26 0,-0.51 0,-0.76 0,-19.72 0.415,-39.34 1.215,-58.86 1.59,-38.71 36.563,-67.43 74.907,-61.92 l 35.082,5.05 c 56.98,8.19 110.303,-31.73 118.493,-88.71 8.19,-56.98 -31.72,-110.3 -88.7,-118.49 l -28.657,-4.12 c -39.484,-5.68 -64.902,-45.03 -53.711,-83.32 5.516,-18.86 11.403,-37.57 17.649,-56.11 12.429,-36.88 54.09,-54.89 89.492,-38.72 l 32.567,14.87 c 52.37,23.92 114.78,0.64 138.69,-51.72 23.91,-52.37 0.63,-114.78 -51.73,-138.69 l -26.16,-11.95 c -36.34,-16.59 -49.63,-61.59 -28,-95.17 10.61,-16.47 21.54,-32.72 32.79,-48.73 22.35,-31.81 67.34,-37.32 96.72,-11.86 l 26.84,23.25 c 43.5,37.7 109.94,32.95 147.64,-10.56 55.18,0 80.74,-68.52 39.03,-104.66 l -71.19,-61.69 c -30.16,-26.13 -30.27,-72.99 -0.13,-99.14 14.77,-12.81 29.81,-25.33 45.09,-37.55 30.4,-24.3 75.19,-16.95 96.24,15.79 l 17.52,27.27 c 27.81,43.27 82.88,62.63 130.2,42.47 61.08,-26.01 81.85,-99.7 47.52,-153.11 l -15.62,-24.31 c -21.56,-33.55 -8.49,-78.54 27.78,-95.14 17.8,-8.14 35.78,-15.94 53.95,-23.37 36.02,-14.75 76.92,4.92 87.89,42.26 l 9.34,31.83 c 14.31,48.72 60.8,82.4 111.31,77.17 66.83,-6.92 108.29,-72.31 90.26,-133.7 l -8.1,-27.58 c -11.24,-38.3 14.01,-77.81 53.53,-83.47 19.31,-2.76 38.74,-5.15 58.28,-7.15 38.7,-3.96 72.38,26.42 72.38,65.32 v 35.51 c 0,57.56 47.1,104.66 104.67,104.66 57.56,0 104.66,-47.1 104.66,-104.66 v -28.71 c 0,-39.88 35.31,-70.63 74.8,-65.03 19.45,2.76 38.78,5.91 57.98,9.43 38.3,7.03 62.07,45.72 51.1,83.08 l -9.18,31.28 c -14.5,49.36 6.94,103.66 53.17,126.22 59.65,29.12 128.94,-3.44 146.83,-64.36 l 8.16,-27.78 c 11.25,-38.32 53.89,-57.88 90.2,-41.27 17.85,8.17 35.51,16.68 52.97,25.54 34.67,17.59 46.53,61.34 25.51,94.05 l -17.69,27.52 c -27.81,43.27 -22.54,101.41 15.46,136.08 49.04,44.76 124.69,33.03 159.02,-20.38 l 15.46,-24.06 c 21.58,-33.59 67.99,-40.35 98.15,-14.19 14.78,12.82 29.3,25.93 43.55,39.32 28.34,26.64 27.42,71.99 -1.98,97.46 l -24.46,21.2 c -38.88,33.69 -50.2,90.95 -23.52,134.93 34.45,56.75 110.34,66.82 158.33,25.24 l 21.7,-18.81 c 30.14,-26.12 76.53,-19.58 98.12,13.95 10.6,16.44 20.87,33.12 30.81,50.01 19.74,33.55 6.1,76.85 -29.32,93.03 l -32.36,14.78 c -52.36,23.91 -75.64,86.32 -51.73,138.68 0,53.84 55.7,89.63 104.67,67.27 l 60.31,-27.55 c 36.3,-16.58 79,2.79 90.24,41.08 5.5,18.76 10.64,37.68 15.4,56.75 9.43,37.74 -15.85,75.39 -54.35,80.93 l -35.32,5.07 c -62.85,9.04 -104.94,72.99 -84.61,136.18 15.76,48.97 66.45,77.91 117.37,70.59 l 25.43,-3.65 c 39.31,-5.65 74.92,24.65 74.94,64.36 0,0.26 0,0.51 0,0.77 0,19.71 -0.42,39.33 -1.22,58.85 -1.59,38.71 -36.56,67.43 -74.9,61.92"
         style="fill:#820e0e;fill-opacity:1;fill-rule:nonzero;stroke:none"
         id="path14886" />
    </g>
  </g>
</svg>
