<?xml version="1.0" encoding="UTF-8" standalone="no"?>
<!-- Created with Inkscape (http://www.inkscape.org/) -->

<svg
   version="1.1"
   id="svg18727"
   width="60"
   height="50"
   viewBox="0 0 60 49.999998"
   sodipodi:docname="bird.svg"
   inkscape:version="1.2.2 (b0a8486, 2022-12-01)"
   xmlns:inkscape="http://www.inkscape.org/namespaces/inkscape"
   xmlns:sodipodi="http://sodipodi.sourceforge.net/DTD/sodipodi-0.dtd"
   xmlns="http://www.w3.org/2000/svg"
   xmlns:svg="http://www.w3.org/2000/svg">
  <defs
     id="defs18731" />
  <sodipodi:namedview
     id="namedview18729"
     pagecolor="#ffffff"
     bordercolor="#000000"
     borderopacity="0.25"
     inkscape:showpageshadow="2"
     inkscape:pageopacity="0.0"
     inkscape:pagecheckerboard="0"
     inkscape:deskcolor="#d1d1d1"
     showgrid="false"
     inkscape:zoom="12.087044"
     inkscape:cx="31.935019"
     inkscape:cy="28.253392"
     inkscape:window-width="1920"
     inkscape:window-height="1015"
     inkscape:window-x="3840"
     inkscape:window-y="0"
     inkscape:window-maximized="1"
     inkscape:current-layer="g18735">
    <inkscape:page
       x="0"
       y="0"
       id="page18733"
       width="60"
       height="49.999996" />
  </sodipodi:namedview>
  <g
     id="g18735"
     inkscape:groupmode="layer"
     inkscape:label="Page 1"
     transform="matrix(1.3333333,0,0,-1.3333333,0,1099.04)">
    <g
       id="g18737"
       transform="matrix(0.01181682,0,0,0.01651349,-72.649965,774.66976)">
      <path
         d="m 7967.41,2291.42 c -116.89,-29.03 -184.69,-141.92 -307.38,-128.15 -29.11,-75.34 -79.61,-128.83 -160.36,-165.09 -23.05,-85.07 -77.09,-161.4 -140.95,-234.81 -62.78,-72.12 -109.73,-157.94 -171.88,-230.71 -57.89,-67.78 -147.46,-105.47 -188.51,-190.94 -104.99,-16.81 -160.55,-104.09 -208.28,-145.68 -71.37,-25.84 -113.09,-40.93 -132.09,-47.82 -53.19,-63.3 -92.51,-110.09 -133.06,-158.368 -26.72,-2.461 -51.83,-4.743 -71.49,-6.532 -22.89,-32.961 -43.71,-62.941 -64.51,-92.941 -7.26,3.039 -14.52,6.07 -21.78,9.121 10.79,45.93 21.55,91.859 36.47,155.33 -29.94,-11.49 -54.08,-14.67 -69.62,-27.95 -36.3,-30.939 -68.47,-66.751 -103.52,-101.778 -23.86,0 -48.88,0 -76.91,0 3.05,11.226 2.66,22.41 7.39,25.347 83,51.361 166.56,105.761 199.24,202.191 41.23,121.64 76.14,245.95 105.1,371.1 29.57,127.71 84.04,251.97 65.18,388.04 44.23,39.19 20.2,105.66 65.49,149.73 37.31,36.29 47.43,99.59 82.9,138.91 54.72,60.68 120.81,111.11 210.83,191.59 30.33,50.81 -71.99,122.43 -28.31,216.61 9.21,9.78 30.26,32.13 51.55,54.76 -106.16,59.18 -221,49.87 -333.4,45.3 -107.39,-4.38 -219.19,31.3 -332.05,-48.04 29.1,50.27 66.03,86.41 102.79,108.59 171.32,11.61 336.64,35.72 489.51,129.14 81.48,49.79 182,62.73 277.26,8.9 25.06,-14.16 61.55,-9.24 84.95,-24.82 65.46,-43.61 129.12,-6.29 170.69,22.72 116.97,81.57 241.26,103.03 377.7,92.81 52.87,-3.98 106.46,-3.37 159.42,-0.15 160.45,9.73 312.03,-40.43 463.71,-76.99 71.94,-17.35 150.75,-8.34 217.79,-50.45 37.2,-23.39 83.91,-32.82 118.65,-58.82 87.82,-65.69 184.78,-96.44 293.24,-102.96 49.21,-2.93 97.16,-23.94 146.5,-29.46 47.27,-5.29 96.01,-5.14 143.36,-0.2 65.11,6.82 129.18,24.35 194.35,29.84 63.37,5.29 127.54,1.13 191.33,1.13 26.61,0 53.98,4.05 79.6,-0.97 33.59,-6.6 65.63,-27.78 98.69,-28.48 24.62,-0.55 49.75,21.47 104.67,47.85 -26.08,-41.62 -34.44,-54.91 -42.9,-68.43 8.95,-11 17.62,-21.71 29.46,-36.28 -45.66,-10.13 -103.75,-40.09 -122.86,-23.95 -53.03,44.83 -72.7,-19.4 -110.11,-19.82 -43.57,-0.48 -87.4,-29.21 -130.26,-27.16 -65.05,3.1 -136.32,-31.44 -196.37,26.37 -11.2,10.78 -40.71,3.63 -61.7,2.97 -128.54,-3.9 -251.3,23.88 -372.76,62.94 -23.86,7.66 -52.3,1.11 -63.08,-16.4 -23.28,-12.47 -46.53,-24.96 -65.39,-35.06 7.28,-19.24 7.98,-32.36 14.63,-37.06 157.59,-111.43 252,-374.37 278.95,-504.77 27.97,-135.15 74.18,-266.51 113.38,-399.24 44.55,-150.91 95.8,-300.55 73.13,-462 -58.65,-29.95 52.67,-96.62 -26.38,-122.16 0,-52.78 0,-105.559 0,-169.45 -32.29,-25.988 -69.19,-55.691 -96.94,-78.019 -2.16,-39.699 -3.5,-64.539 -4.68,-86.242 -55.93,-11.297 -102.38,-6.079 -118.36,39.39 -33.06,93.86 -104.9,115.77 -189.98,115.11 -81.47,-0.579 -151.65,40.14 -201.37,88.351 -119.69,116.05 -252.51,220.6 -342.67,366.45 -76.39,123.59 -141.67,248.93 -168.2,393.67 -7.69,41.97 -27.28,90.38 -57.61,118.15 -103.4,94.65 -113.59,220.77 -131.67,345.29 -3.76,25.88 -0.52,52.75 -0.52,90.45"
         style="fill:#820e0e;fill-opacity:1;fill-rule:evenodd;stroke:none"
         id="path18745" />
    </g>
  </g>
</svg>
